<?xml version="1.0" encoding="UTF-8" standalone="no"?><!DOCTYPE svg PUBLIC "-//W3C//DTD SVG 1.1//EN" "http://www.w3.org/Graphics/SVG/1.1/DTD/svg11.dtd"><svg width="100%" height="100%" viewBox="0 0 1665 240" version="1.1" xmlns="http://www.w3.org/2000/svg" xmlns:xlink="http://www.w3.org/1999/xlink" xml:space="preserve" xmlns:serif="http://www.serif.com/" style="fill-rule:evenodd;clip-rule:evenodd;stroke-linejoin:round;stroke-miterlimit:1.41421;"><path d="M240,202.149c0,20.905 -16.949,37.851 -37.849,37.851l-164.304,0c-20.906,0 -37.847,-16.946 -37.847,-37.851l0,-164.3c0,-20.905 16.941,-37.849 37.847,-37.849l164.304,0c20.9,0 37.849,16.944 37.849,37.849l0,164.3Z" style="fill:#0d82df;fill-rule:nonzero;"/><path d="M366.073,135.094c0,-0.163 0.009,-0.322 0.009,-0.481c0,-0.16 -0.009,-0.322 -0.009,-0.482l0,0.963Z" style="fill:#fff;fill-rule:nonzero;"/><path d="M644.437,134.612c0,0.162 0.007,0.322 0.007,0.481l0,-0.959c0,0.156 -0.007,0.318 -0.007,0.478" style="fill:#fff;fill-rule:nonzero;"/><path d="M157.395,27.555c-11.491,-7.118 -24.39,-10.746 -38.719,-10.844l-0.409,0c-0.246,0.009 -0.479,0.038 -0.72,0.055c-0.242,-0.017 -0.475,-0.046 -0.719,-0.055l-0.411,0c-14.327,0.098 -27.229,3.726 -38.717,10.847c-5.591,3.467 -10.857,7.752 -15.775,12.884c-14.963,15.475 -22.465,34.168 -22.53,56.084c0.011,2.343 0.109,4.648 0.284,6.918l0,0.044c0.607,7.667 2.183,14.927 4.724,21.765c0.126,0.383 0.23,0.764 0.362,1.141c0.598,1.781 1.242,3.556 1.93,5.331c1.721,4.45 8.621,10.126 32.012,-10.265l18.185,-16.397l-35.811,-22.241c-0.467,-0.294 -0.536,-0.938 -0.137,-1.285l9.526,-8.281c0.265,-0.231 0.641,-0.329 1.006,-0.294l48.672,10.829l16.969,-15.103c5.039,-4.501 11.281,-7.247 17.856,-8.049c4.712,-0.593 8.493,4.058 7.232,8.891c-1.91,6.688 -5.605,12.702 -10.878,17.051l-17.283,14.446l1.955,51.448c-0.034,0.378 -0.19,0.746 -0.451,0.977l-9.532,8.283c-0.393,0.344 -0.992,0.161 -1.193,-0.363l-14.921,-40.174l-18.743,15.712c-1.92,1.618 -3.829,3.244 -5.729,4.889c-3.634,3.15 -7.605,5.912 -10.959,9.377c-8.042,8.319 -5.252,21.938 -1.451,27.181c2.65,3.653 5.308,7.143 7.926,10.422c0.644,0.815 1.28,1.608 1.913,2.409c0.091,0.127 0.172,0.248 0.279,0.383c0.523,0.64 1.049,1.254 1.576,1.876c0.165,0.2 0.335,0.396 0.507,0.594c0.149,0.185 0.307,0.377 0.46,0.557c0.037,0.051 0.065,0.089 0.094,0.129c0.137,0.152 0.257,0.299 0.379,0.446c0.229,0.258 0.441,0.503 0.743,0.86c0.205,0.242 0.409,0.492 0.617,0.728c3.217,3.749 6.186,6.971 8.743,9.484c0.302,0.3 0.614,0.617 0.903,0.902c1.001,1.006 1.987,1.937 2.955,2.844c0.083,0.069 0.169,0.158 0.244,0.236c0.285,0.263 0.548,0.479 0.823,0.735c6.849,6.259 12.652,10.034 16.365,10.225c3.71,-0.191 9.516,-3.966 16.367,-10.225c0.274,-0.256 0.539,-0.472 0.82,-0.735c0.08,-0.078 0.163,-0.167 0.245,-0.236c0.967,-0.907 1.955,-1.838 2.959,-2.844c0.284,-0.285 0.598,-0.602 0.9,-0.902c2.557,-2.513 5.526,-5.735 8.746,-9.484c0.207,-0.236 0.409,-0.486 0.616,-0.728c0.3,-0.357 0.51,-0.602 0.744,-0.86c0.119,-0.147 0.238,-0.294 0.374,-0.446c0.033,-0.04 0.061,-0.078 0.098,-0.129c0.149,-0.18 0.309,-0.372 0.461,-0.557c0.169,-0.198 0.337,-0.394 0.507,-0.594c0.527,-0.622 1.048,-1.236 1.573,-1.876c0.11,-0.135 0.186,-0.256 0.28,-0.383c0.634,-0.801 1.269,-1.594 1.915,-2.409c13.613,-17.088 28.569,-39.784 36.178,-62.385c0.135,-0.377 0.237,-0.758 0.362,-1.141c2.54,-6.838 4.114,-14.098 4.723,-21.765l0,-0.044c0.174,-2.27 0.278,-4.575 0.285,-6.918c-0.065,-21.916 -7.567,-40.609 -22.532,-56.084c-4.918,-5.132 -10.183,-9.417 -15.773,-12.887" style="fill:#fff;fill-rule:nonzero;"/><path d="M375.106,165.771c-4.781,6.906 -10.492,11.953 -17.132,15.141c-6.907,2.921 -14.477,4.382 -22.711,4.382c-19.657,0 -35.196,-6.507 -46.618,-19.523c-11.687,-12.75 -17.531,-30.281 -17.531,-52.594c0,-22.047 5.711,-39.445 17.133,-52.195c11.953,-13.281 27.758,-19.922 47.414,-19.922c17,0 31.078,4.117 42.234,12.352c10.891,8.765 17.399,20.187 19.524,34.265l-19.125,0c-5.578,0 -9.695,-2.523 -12.352,-7.57c-1.859,-3.188 -4.515,-6.11 -7.968,-8.766c-5.313,-3.719 -12.352,-5.578 -21.118,-5.578c-11.421,0 -20.453,4.117 -27.093,12.352c-6.641,8.765 -9.961,20.453 -9.961,35.062c0,14.875 3.453,26.563 10.359,35.063c6.641,8.234 16.07,12.351 28.289,12.351c9.031,0 16.469,-2.523 22.313,-7.57c5.843,-5.313 9.562,-12.617 11.156,-21.914l-16.734,0c-3.985,0 -7.372,-1.395 -10.161,-4.184c-2.789,-2.789 -4.183,-6.176 -4.183,-10.16l0,-9.164l56.976,0l0,74.508l-7.57,0c-7.437,0 -12.086,-3.719 -13.945,-11.156l-1.196,-5.18Z" style="fill:#fff;fill-rule:nonzero;"/><path d="M500.311,76.122l0,62.157c0,18.859 -4.914,31.211 -14.742,37.054c-9.828,5.844 -20.586,8.766 -32.273,8.766c-11.422,-0.531 -21.848,-3.719 -31.278,-9.562c-9.429,-5.844 -14.144,-17.93 -14.144,-36.258l0,-62.157l27.891,0l0,67.735c0,6.375 1.859,11.023 5.578,13.945c3.718,2.922 7.968,4.383 12.75,4.383c4.781,0 9.097,-1.461 12.949,-4.383c3.851,-2.922 5.777,-7.57 5.777,-13.945l0,-54.188c0,-3.718 1.262,-6.906 3.785,-9.562c2.524,-2.656 5.778,-3.985 9.762,-3.985l13.945,0Z" style="fill:#fff;fill-rule:nonzero;"/><path d="M511.165,76.122l14.344,0c3.718,0 6.906,1.329 9.562,3.985c2.656,2.656 3.984,5.844 3.984,9.562l0,92.438l-27.89,0l0,-105.985Zm0,-31.078l14.344,0c3.718,0 6.906,1.328 9.562,3.985c2.656,2.656 3.984,5.843 3.984,9.562l0,8.367l-27.89,0l0,-21.914Z" style="fill:#fff;fill-rule:nonzero;"/><path d="M605.69,128.716c-3.719,1.86 -8.898,3.586 -15.539,5.18c-6.109,1.328 -9.164,1.992 -9.164,1.992c-4.781,1.328 -8.234,3.055 -10.359,5.18c-1.86,2.922 -2.789,5.844 -2.789,8.765c0,3.985 1.195,7.172 3.586,9.563c2.39,2.125 5.843,3.187 10.359,3.187c7.437,0 13.281,-2.125 17.531,-6.375c4.25,-4.25 6.375,-10.093 6.375,-17.531l0,-9.961Zm6.375,49.008c-5.578,2.922 -11.488,4.715 -17.73,5.379c-6.243,0.664 -11.754,0.996 -16.535,0.996c-9.563,0 -17.93,-2.59 -25.102,-7.769c-7.172,-5.18 -10.758,-13.747 -10.758,-25.7c0,-11.156 3.254,-19.125 9.762,-23.906c6.508,-4.781 14.808,-7.969 24.902,-9.562c1.328,0 2.922,-0.2 4.781,-0.598c1.86,-0.399 3.985,-0.731 6.375,-0.996c11.688,-1.594 17.532,-5.047 17.532,-10.36c0,-3.984 -2.059,-6.574 -6.176,-7.769c-4.117,-1.195 -7.902,-1.793 -11.356,-1.793c-3.718,0 -7.039,0.531 -9.96,1.594c-2.922,1.062 -5.047,3.054 -6.375,5.976l-26.696,0c1.063,-8.234 4.781,-15.008 11.156,-20.32c7.172,-6.109 17.399,-9.164 30.68,-9.164c14.875,0 26.031,2.523 33.469,7.57c7.703,5.313 11.555,12.75 11.555,22.313l0,36.257c0,10.625 -1.926,18.926 -5.778,24.903c-3.851,5.976 -8.433,10.293 -13.746,12.949Z" style="fill:#fff;fill-rule:nonzero;"/><path d="M759.678,44.646l13.547,0c3.719,0 6.906,1.394 9.563,4.184c2.656,2.789 3.984,5.91 3.984,9.363l0,77.695c0,18.859 -5.445,31.609 -16.336,38.25c-10.891,6.641 -22.711,9.961 -35.461,9.961c-6.906,0 -13.68,-1.129 -20.32,-3.387c-6.641,-2.257 -11.953,-5.91 -15.938,-10.957c-7.703,-9.828 -11.554,-23.242 -11.554,-40.242c0,-16.734 3.851,-30.148 11.554,-40.242c7.969,-10.359 18.196,-15.539 30.68,-15.539c6.641,0 12.484,1.328 17.531,3.984c5.313,3.188 9.563,7.305 12.75,12.352l0,-45.422Zm-45.422,83.672c0,10.625 1.993,18.726 5.977,24.304c3.984,5.579 9.695,8.368 17.133,8.368c7.172,0 12.75,-2.789 16.734,-8.368c3.719,-5.578 5.578,-13.679 5.578,-24.304c0,-9.563 -1.992,-17.133 -5.976,-22.711c-4.25,-5.313 -9.961,-7.969 -17.133,-7.969c-6.906,0 -12.352,2.789 -16.336,8.367c-3.984,5.313 -5.977,12.75 -5.977,22.313Z" style="fill:#fff;fill-rule:nonzero;"/><path d="M869.344,149.435l19.922,0c-2.922,11.156 -8.5,19.656 -16.734,25.5c-8.235,6.109 -18.594,9.164 -31.078,9.164c-15.141,0 -26.961,-4.914 -35.461,-14.742c-8.5,-9.563 -12.75,-23.242 -12.75,-41.039c0,-17 4.117,-30.281 12.351,-39.844c8.5,-9.828 20.321,-14.742 35.461,-14.742c15.938,0 28.289,4.781 37.055,14.344c8.5,9.828 12.75,23.507 12.75,41.039l0,4.382c0,1.329 -0.133,2.258 -0.399,2.79l-68.929,0c0.265,8.234 2.258,14.343 5.976,18.328c3.453,4.25 8.633,6.375 15.539,6.375c4.516,0 8.368,-0.93 11.555,-2.789c0.797,-0.266 1.527,-0.731 2.191,-1.395c0.664,-0.664 1.395,-1.394 2.192,-2.191c0.265,-0.797 1.262,-1.86 2.988,-3.188c1.727,-1.328 4.184,-1.992 7.371,-1.992Zm-47.812,-31.078l40.64,0c-0.531,-7.172 -2.39,-12.485 -5.578,-15.938c-3.453,-3.718 -8.367,-5.578 -14.742,-5.578c-5.844,0 -10.625,1.86 -14.344,5.578c-3.718,3.719 -5.711,9.032 -5.976,15.938Z" style="fill:#fff;fill-rule:nonzero;"/><path d="M949.223,182.107l0,-122.719c0,-3.984 1.394,-7.371 4.184,-10.16c2.789,-2.789 6.175,-4.184 10.16,-4.184l39.445,0c20.984,0 36.656,5.578 47.016,16.735c10.359,11.687 15.539,28.953 15.539,51.797c0,12.218 -1.86,23.242 -5.578,33.07c-4.25,10.094 -9.829,17.797 -16.735,23.109c-5.844,4.516 -12.086,7.703 -18.726,9.563c-6.375,1.859 -16.071,2.789 -29.086,2.789l-46.219,0Zm27.492,-24.703l22.711,0c13.016,0 22.578,-3.453 28.688,-10.36c5.843,-6.375 8.765,-17.531 8.765,-33.468c0,-15.407 -2.789,-26.696 -8.367,-33.868c-5.312,-7.171 -13.812,-10.757 -25.5,-10.757l-26.297,0l0,88.453Z" style="fill:#fff;fill-rule:nonzero;"/><path d="M1148.94,149.435l19.922,0c-2.922,11.156 -8.5,19.656 -16.735,25.5c-8.234,6.109 -18.593,9.164 -31.078,9.164c-15.14,0 -26.961,-4.914 -35.461,-14.742c-8.5,-9.563 -12.75,-23.242 -12.75,-41.039c0,-17 4.117,-30.281 12.352,-39.844c8.5,-9.828 20.32,-14.742 35.461,-14.742c15.937,0 28.289,4.781 37.054,14.344c8.5,9.828 12.75,23.507 12.75,41.039l0,4.382c0,1.329 -0.132,2.258 -0.398,2.79l-68.93,0c0.266,8.234 2.258,14.343 5.977,18.328c3.453,4.25 8.633,6.375 15.539,6.375c4.516,0 8.367,-0.93 11.555,-2.789c0.796,-0.266 1.527,-0.731 2.191,-1.395c0.664,-0.664 1.395,-1.394 2.191,-2.191c0.266,-0.797 1.262,-1.86 2.989,-3.188c1.726,-1.328 4.183,-1.992 7.371,-1.992Zm-47.813,-31.078l40.641,0c-0.531,-7.172 -2.391,-12.485 -5.578,-15.938c-3.453,-3.718 -8.367,-5.578 -14.742,-5.578c-5.844,0 -10.625,1.86 -14.344,5.578c-3.719,3.719 -5.711,9.032 -5.977,15.938Z" style="fill:#fff;fill-rule:nonzero;"/><path d="M1176.52,147.044l27.093,0c0.266,5.313 2.258,9.297 5.977,11.953c3.984,2.657 9.297,3.985 15.937,3.985c4.782,0 8.899,-0.93 12.352,-2.789c3.187,-1.86 4.781,-4.383 4.781,-7.571c0,-4.781 -5.578,-8.367 -16.734,-10.757c-4.781,-0.797 -8.367,-1.594 -10.758,-2.391c-14.078,-3.453 -23.508,-7.57 -28.289,-12.352c-5.313,-4.781 -7.969,-11.156 -7.969,-19.125c0,-10.093 3.852,-18.46 11.555,-25.101c7.969,-6.109 18.328,-9.164 31.078,-9.164c13.813,0 24.836,3.055 33.07,9.164c7.703,6.641 11.821,15.273 12.352,25.898l-17.133,0c-5.047,0 -8.898,-2.257 -11.555,-6.773c-1.062,-1.063 -2.125,-2.125 -3.187,-3.188c-3.188,-2.39 -7.57,-3.586 -13.149,-3.586c-5.312,0 -9.296,0.797 -11.953,2.391c-2.39,1.594 -3.586,3.984 -3.586,7.172c0,4.25 6.907,7.836 20.719,10.758c1.594,0.531 2.988,0.929 4.184,1.195c1.195,0.266 2.324,0.399 3.386,0.399c13.547,3.453 22.977,7.437 28.29,11.953c5.046,4.781 7.57,11.156 7.57,19.125c0,11.687 -4.25,20.718 -12.75,27.093c-7.969,5.844 -19.922,8.766 -35.86,8.766c-15.14,0 -26.429,-3.055 -33.867,-9.164c-7.703,-6.109 -11.554,-15.008 -11.554,-26.695l0,-1.196Z" style="fill:#fff;fill-rule:nonzero;"/><path d="M1326.03,182.107c-8.765,0.531 -18.261,0.398 -28.488,-0.399c-10.227,-0.796 -15.34,-7.304 -15.34,-19.523l0,-117.141l14.344,0c3.453,0 6.508,1.328 9.164,3.985c2.656,2.656 3.984,5.843 3.984,9.562l0,17.93l16.336,0l0,5.578c0,3.984 -1.328,7.238 -3.984,9.762c-2.656,2.523 -5.844,3.785 -9.563,3.785l-2.789,0l0,58.969c0,4.515 2.657,6.773 7.969,6.773l8.367,0l0,20.719Z" style="fill:#fff;fill-rule:nonzero;"/><path d="M1334.89,76.122l14.343,0c3.719,0 6.907,1.329 9.563,3.985c2.656,2.656 3.984,5.844 3.984,9.562l0,92.438l-27.89,0l0,-105.985Zm0,-31.078l14.343,0c3.719,0 6.907,1.328 9.563,3.985c2.656,2.656 3.984,5.843 3.984,9.562l0,8.367l-27.89,0l0,-21.914Z" style="fill:#fff;fill-rule:nonzero;"/><path d="M1460.5,182.107l-13.945,0c-3.985,0 -7.239,-1.262 -9.762,-3.785c-2.524,-2.524 -3.785,-5.778 -3.785,-9.762l0,-54.188c0,-6.375 -1.926,-11.023 -5.778,-13.945c-3.851,-2.922 -8.168,-4.383 -12.949,-4.383c-4.781,0 -9.031,1.461 -12.75,4.383c-3.719,2.922 -5.578,7.57 -5.578,13.945l0,67.735l-27.891,0l0,-62.156c0,-18.063 4.715,-30.149 14.145,-36.258c9.43,-6.11 19.855,-9.43 31.277,-9.961c11.688,0 22.446,3.055 32.274,9.164c9.828,6.109 14.742,18.461 14.742,37.055l0,62.156Z" style="fill:#fff;fill-rule:nonzero;"/><path d="M1482.11,172.544c-5.578,-4.781 -9.562,-11.222 -11.953,-19.324c-2.391,-8.101 -3.586,-16.535 -3.586,-25.301c0,-7.172 0.996,-14.343 2.988,-21.515c1.993,-7.172 5.114,-13.149 9.364,-17.93c6.906,-7.969 15.804,-12.684 26.695,-14.144c10.891,-1.461 20.719,-0.598 29.484,2.589c10.094,3.985 17.532,10.891 22.313,20.719c4.516,8.766 6.773,18.992 6.773,30.68c0,8.5 -0.929,15.804 -2.789,21.914c-1.859,6.109 -4.25,11.289 -7.172,15.539c-6.375,8.766 -14.476,14.211 -24.304,16.336c-8.766,2.39 -17.598,2.59 -26.496,0.598c-8.899,-1.993 -16.004,-5.379 -21.317,-10.161Zm19.125,-70.125c-5.578,6.11 -8.101,15.207 -7.57,27.293c0.531,12.086 2.789,20.52 6.773,25.301c1.594,2.125 4.383,3.918 8.368,5.379c3.984,1.461 8.035,1.594 12.152,0.398c4.117,-1.195 7.769,-4.183 10.957,-8.964c3.187,-4.782 4.914,-12.485 5.18,-23.11c0,-9.562 -1.528,-16.734 -4.582,-21.515c-3.055,-4.782 -6.575,-7.836 -10.559,-9.164c-3.984,-1.329 -7.969,-1.395 -11.953,-0.2c-3.985,1.196 -6.906,2.723 -8.766,4.582Z" style="fill:#fff;fill-rule:nonzero;"/><path d="M1570.26,147.044l27.093,0c0.266,5.313 2.258,9.297 5.977,11.953c3.984,2.657 9.297,3.985 15.937,3.985c4.782,0 8.899,-0.93 12.352,-2.789c3.187,-1.86 4.781,-4.383 4.781,-7.571c0,-4.781 -5.578,-8.367 -16.734,-10.757c-4.781,-0.797 -8.367,-1.594 -10.758,-2.391c-14.078,-3.453 -23.508,-7.57 -28.289,-12.352c-5.313,-4.781 -7.969,-11.156 -7.969,-19.125c0,-10.093 3.852,-18.46 11.555,-25.101c7.969,-6.109 18.328,-9.164 31.078,-9.164c13.812,0 24.836,3.055 33.07,9.164c7.703,6.641 11.821,15.273 12.352,25.898l-17.133,0c-5.047,0 -8.898,-2.257 -11.555,-6.773c-1.062,-1.063 -2.125,-2.125 -3.187,-3.188c-3.188,-2.39 -7.57,-3.586 -13.149,-3.586c-5.312,0 -9.296,0.797 -11.953,2.391c-2.39,1.594 -3.586,3.984 -3.586,7.172c0,4.25 6.907,7.836 20.719,10.758c1.594,0.531 2.988,0.929 4.184,1.195c1.195,0.266 2.324,0.399 3.386,0.399c13.547,3.453 22.977,7.437 28.289,11.953c5.047,4.781 7.571,11.156 7.571,19.125c0,11.687 -4.25,20.718 -12.75,27.093c-7.969,5.844 -19.922,8.766 -35.86,8.766c-15.14,0 -26.429,-3.055 -33.867,-9.164c-7.703,-6.109 -11.554,-15.008 -11.554,-26.695l0,-1.196Z" style="fill:#fff;fill-rule:nonzero;"/></svg>